<svg xmlns="http://www.w3.org/2000/svg" viewBox="0 0 64 64" role="img" aria-label="Mustache">
  <path fill="#24292f" d="M31.8 32.1c-5.3-9.4-13.5-10.9-18.3-7.5-4.1 2.9-4.7 8.6-1.4 13.4 3.6 5.2 10.5 6.5 16.1 2.2 1.6-1.2 2.9-2.8 3.8-4.6.9 1.8 2.2 3.4 3.8 4.6 5.6 4.3 12.5 3 16.1-2.2 3.3-4.8 2.7-10.5-1.4-13.4-4.8-3.4-13-.9-18.3 8.5l-.2.3-.2-.3Z"/>
  <path fill="#57606a" d="M13.6 27.8c2.4-1.7 7.2-1.5 11.6 3.4-4.9-2.2-10.1-1.6-13.5.9.2-1.8.8-3.2 1.9-4ZM50.4 27.8c-2.4-1.7-7.2-1.5-11.6 3.4 4.9-2.2 10.1-1.6 13.5.9-.2-1.8-.8-3.2-1.9-4Z" opacity=".32"/>
</svg>
